<svg xmlns="http://www.w3.org/2000/svg" xmlns:xlink="http://www.w3.org/1999/xlink" width="148" height="31" viewBox="0 0 148 31">
    <defs>
        <path id="prefix__a" d="M0.124 0.218L28.601 0.218 28.601 28.352 0.124 28.352z"/>
        <path id="prefix__c" d="M0.462 0.004L23.477 0.004 23.477 27.884 0.462 27.884z"/>
    </defs>
    <g fill="none" fill-rule="evenodd">
        <g transform="translate(.429 1) translate(29.35)">
            <mask id="prefix__b" fill="#fff">
                <use xlink:href="#prefix__a"/>
            </mask>
            <path fill="#053e5e" d="M23.436 14.304c0-5.15-3.998-9.189-9.083-9.189-5.067 0-9.064 4.039-9.064 9.19 0 5.111 3.997 9.15 9.064 9.15 5.085 0 9.083-4.039 9.083-9.15m-23.312 0C.124 6.461 6.516.217 14.353.217 22.189.218 28.6 6.462 28.6 14.304c0 7.805-6.412 14.048-14.248 14.048-7.837 0-14.229-6.243-14.229-14.048" mask="url(#prefix__b)"/>
            <path fill="#053e5e" d="M42.474 13.856h5.58c3.385 0 5.383-.82 5.383-4.41 0-3.57-1.998-4.39-5.382-4.39h-5.581v8.8zm15.535 13.306c.12.228.37.682.37.682h-5.265s-.15-.288-.23-.448l-4.69-9.014h-5.72v9.462h-5.165V.53h10.37c8.093 0 10.725 3.063 10.725 8.916 0 4.332-1.425 7.122-5.422 8.312l5.027 9.404z"/>
        </g>
        <path fill="#053e5e" d="M115.877 0.53L115.877 5.057 107.605 5.057 107.605 27.845 102.44 27.845 102.44 5.057 94.168 5.057 94.168 0.53z" transform="translate(.429 1)"/>
        <g transform="translate(.429 1) translate(122.738 .526)">
            <mask id="prefix__d" fill="#fff">
                <use xlink:href="#prefix__c"/>
            </mask>
            <path fill="#053e5e" d="M23.477 16.256c0 7.902-4.611 11.628-11.518 11.628-6.866 0-11.497-3.726-11.497-11.628V.004h5.165v16.252c0 4.39 2.453 6.75 6.332 6.75 3.919 0 6.333-2.36 6.333-6.75V.004h5.185v16.252z" mask="url(#prefix__d)"/>
        </g>
        <path fill="#053e5e" d="M0 12.042L0 12.488 1.131 12.488 5.841 16.574 17.866 16.587 20.179 12.042zM0 .697L0 1.143 1.131 1.143 5.841 5.229 23.63 5.242 25.942.697zM0 23.395L0 23.839 1.131 23.839 5.819 27.94 7.406 27.94 9.719 23.395z" transform="translate(.429 1)"/>
    </g>
</svg>
